<?xml version="1.0" encoding="utf-8"?>
<!-- Generator: Adobe Illustrator 26.0.1, SVG Export Plug-In . SVG Version: 6.00 Build 0)  -->
<svg version="1.1" id="Layer_1" xmlns="http://www.w3.org/2000/svg" xmlns:xlink="http://www.w3.org/1999/xlink" x="0px" y="0px"
	 viewBox="0 0 599 599" style="enable-background:new 0 0 599 599;" xml:space="preserve">
<style type="text/css">
	.st0{fill:#0D6EFD;}
</style>
<g>
	<g>
		<g>
			<g>
				<path class="st0" d="M542.25,599H39.5l21.23-46.08l21.23-46.08l3.57-7.75l17.8-38.33c7.05,9.27,16.8,17.19,28.46,23.28
					c13.31,7.05,29.28,11.97,46.08,14.49c14.97,2.22,30.5,2.7,46.08,1.26c15.93-1.44,31.5-4.83,46.08-10.23
					c17.58-6.57,33.51-16.01,46.08-28.59c13.79-13.79,24.54-29.28,32.55-46.08c5.79-12.05,10.23-25.02,13.53-38.73
					c0.7-2.31,1.09-4.83,1.52-7.44c3-14.58,4.7-29.85,5.22-46.08c0.48-14.79,0.17-30.02-0.96-46.08
					c-0.96-14.79-2.7-30.24-4.83-46.08c-0.3-2.52-0.7-5.22-1.09-7.83c-1.91-12.44-3.96-25.19-6.27-38.33
					c-2.7-14.97-5.79-30.33-9.09-46.08c-3.18-15.06-6.48-30.33-9.96-46.08c-3.31-15.06-6.96-30.5-10.44-46.08
					c-3.48-15.06-6.96-30.5-10.44-46.08l21.23,46.08l21.23,46.08l3.57,7.75l17.8,38.33l21.41,46.08l7.05,15.45l14.19,30.72
					l21.23,46.08l21.23,46.08l21.23,46.08l14.19,30.72l7.05,15.45l21.41,46.08l17.8,38.33l3.57,7.75l21.23,46.08l0,0
					C581.63,574.5,565.92,599,542.25,599z"/>
				<path class="st0" d="M321.69,276.26c0.3,16.23-0.3,31.59-2.31,46.08c-0.48,3.74-1.09,7.53-1.91,11.18l0,0
					c-2.31,12.27-5.79,23.93-10.44,34.94c-7.05,17.01-17.19,32.46-30.72,46.08c-0.17,0.17-0.3,0.48-0.7,0.7
					c-1.44,1.44-3,2.78-4.53,4.26c-12.75,11.18-28.76,19.02-46.08,23.93c-14.79,4.26-30.72,6.18-46.08,6.18
					c-16.23-0.17-32.07-2.7-46.08-7.44c-5.79-1.91-11.31-4.26-16.53-7.05l9.49-20.45l7.05-15.45l14.19-30.72l21.23-46.08
					l10.75-23.06l10.75-23.06l21.23-46.08l14.19-30.72l7.05-15.45l21.41-46.08l17.8-38.33L275,91.9l11.97-25.8
					c2.05,8.7,3.96,17.27,5.79,25.8c3.48,15.75,6.96,31.2,10.05,46.08c3.31,15.93,6.27,31.29,8.96,46.08
					c2.31,13.31,4.44,26.46,5.96,39.21l0,0l0.78,6.96C320.25,246.07,321.38,261.51,321.69,276.26z"/>
			</g>
		</g>
	</g>
</g>
</svg>
